<?xml version="1.0" encoding="UTF-8"?>
<svg width="61px" height="50px" viewBox="0 0 61 50" version="1.1" xmlns="http://www.w3.org/2000/svg" xmlns:xlink="http://www.w3.org/1999/xlink">
    <!-- Generator: Sketch 57.1 (83088) - https://sketch.com -->
    <title>接口中心</title>
    <desc>Created with Sketch.</desc>
    <defs>
        <linearGradient x1="50%" y1="0%" x2="50%" y2="100%" id="linearGradient-1">
            <stop stop-color="#757C90" offset="0%"></stop>
            <stop stop-color="#868DA4" offset="100%"></stop>
        </linearGradient>
    </defs>
    <g id="页面-1" stroke="none" stroke-width="1" fill="none" fill-rule="evenodd">
        <g id="new" transform="translate(-1180.000000, -160.000000)" fill-rule="nonzero">
            <g id="right" transform="translate(621.000000, 70.000000)">
                <g id="接口" transform="translate(559.000000, 90.000000)">
                    <g id="接口中心">
                        <path d="M50,11.5565332 L50,7.4731887 C50,6.27852507 49.4597158,5.30606279 48.26,5.30606279 L43,5.30606279 L43,2.16763794 C43,0.972974319 41.8487023,0.000512034885 40.6489865,0.000512034885 L39,0.000512034885 L39,5.44545681 L37,5.44545681 L37,0.000512034885 L34,0.000512034885 L34,5.44545681 L32,5.44545681 L32,0.000512034885 L29.0211546,0.000512034885 L29.0211546,5.44545681 L27,5.44494478 L27,4.76312323e-10 L24,0.000512034885 L24,5.44545681 L22,5.44545681 L22,0.000512034885 L20.5733531,0.000512034885 C19.3664586,-0.00946068329 18.0100177,0.956714612 18,2.15852177 C17.9999831,2.16054678 17.9999831,3.20972597 18,5.30605932 L12.8630368,5.30605932 C11.6561572,5.29472801 11.0113809,6.2597912 11,7.46158859 C10.9999756,7.46416506 10.9999756,8.82914466 11,11.5565274 L2.2034613,11.5565274 C0.997488776,11.5456507 0.0109943413,12.5103521 0,13.711251 C0,13.7151122 0,13.7189734 0,13.7228346 L0,47.8338886 C0,49.0277319 1.00374475,50.0001942 2.20346053,50.0001942 L58.7965394,50.0001942 C60.0029729,50.0106198 60.9894673,49.045183 61,47.84383 C61,47.8405168 61,47.8372035 61,47.8338902 L61,13.7228362 C61,12.5281726 59.9962553,11.5565306 58.7965395,11.5565306 L50,11.5565332 Z" id="路径" fill="url(#linearGradient-1)"></path>
                        <path d="M17.9791615,21 C16.9037485,21 16,21.9003758 16,22.9999199 L16,39.0001079 C16.0059495,40.110688 16.8907256,41.0060555 17.9762021,41 L44.0208385,41 C45.0955299,41 46,40.0996521 46,39.000108 L46,22.99992 C45.9936484,21.8889336 45.1082264,20.9935705 44.0223547,21 L17.9791615,21 Z" id="路径" fill="#F8FBFF"></path>
                        <path d="M40.118476,33.3453253 L40.118476,32.3602338 L31.287088,32.3602338 L31.2870877,32.3602335 C31.7948435,32.850138 32.2420613,33.3976714 32.6194059,33.9914039 C33.2010105,34.8501838 33.6546735,35.2567033 34.2833345,35.5209423 C34.8053819,35.7387219 35.509039,35.8432564 36.5281279,35.8773751 L36.5281279,35.2472651 L39.256735,35.2472651 L39.256735,37.9956444 L36.5406287,38 L36.5406287,37.3423054 C35.4244802,37.3125422 34.5502387,37.197119 33.7612871,36.8813386 C32.8054292,36.4958683 32.0892713,35.7960676 31.4437002,34.8160598 C30.8554796,33.9275165 30.3407882,33.3409643 29.6915391,32.9642039 C29.0672916,32.6012374 28.2481937,32.3834574 26.962932,32.3645835 L25.0659236,32.3645835 L25.0659237,32.3645833 C24.7295633,33.3896663 23.7676139,34.0880785 22.6762787,34.0995645 L22.6762788,34.0995645 C21.2393218,34.1395783 20.0415831,33.0219321 20.0010552,31.6032379 C19.9605264,30.1845394 21.0925567,29.0020197 22.5295093,28.9620067 C23.7275763,28.928645 24.7938486,29.707314 25.1122446,30.8481131 L25.1122448,30.8481131 C25.6827542,30.785074 26.2343394,30.6082407 26.7335263,30.3283459 C27.3805685,29.9515867 27.8952599,29.3606757 28.4834806,28.4743155 C29.1327296,27.4899502 29.8496231,26.7901503 30.8003319,26.4090367 C31.6664863,26.061315 32.6510195,25.9604118 33.928194,25.9437124 L33.9281939,25.9437125 C34.1932525,25.3690181 34.7738522,25 35.4134509,25 L35.413451,25 C36.3486553,25 37.1067905,25.748502 37.1067905,26.6718232 C37.1067904,27.5951445 36.3486553,28.3436465 35.413451,28.3436465 L35.4134509,28.3436465 C34.7783577,28.3400727 34.2026335,27.9742445 33.9362811,27.4050134 C32.7274866,27.4217099 31.9164803,27.5269702 31.3348757,27.7679799 C30.702541,28.0314935 30.2488736,28.4380164 29.6716826,29.296792 L29.6716825,29.2967921 C29.2995497,29.8830633 28.8593232,30.4244063 28.3599524,30.9098149 L40.1184541,30.9098149 L40.1184541,29.9261758 L43,31.6401044 L40.118476,33.3453253 Z" id="路径" fill="#FB913B"></path>
                    </g>
                </g>
            </g>
        </g>
    </g>
</svg>