<?xml version="1.0" encoding="UTF-8"?>
<svg width="62px" height="50px" viewBox="0 0 62 50" version="1.1" xmlns="http://www.w3.org/2000/svg" xmlns:xlink="http://www.w3.org/1999/xlink">
    <!-- Generator: Sketch 63.1 (92452) - https://sketch.com -->
    <title>aftersale-empty</title>
    <desc>Created with Sketch.</desc>
    <g id="图标" stroke="none" stroke-width="1" fill="none" fill-rule="evenodd">
        <g id="new" transform="translate(-922.000000, -795.000000)">
            <g id="aftersale-empty" transform="translate(911.000000, 795.000000)">
                <g transform="translate(11.000000, 0.000000)">
                    <path d="M0,0 L34.4615385,0 C36.6706775,-8.49901461e-16 38.4615385,1.790861 38.4615385,4 L38.461,5.384 L57.5384615,5.38461538 C59.7476005,5.38461538 61.5384615,7.17547639 61.5384615,9.38461538 L61.5384615,46 C61.5384615,48.209139 59.7476005,50 57.5384615,50 L4,50 C1.790861,50 2.705415e-16,48.209139 0,46 L0,0 Z" id="矩形-3" fill="#656D83"></path>
                    <rect id="矩形" fill="#8C95B0" x="0" y="13.8461538" width="61.5384615" height="36.1538462" rx="4"></rect>
                    <path d="M31,23 C26.0289062,23 22,27.0289062 22,32 L22,40.4375 C22,40.7492187 22.2507812,41 22.5625,41 L26.875,41 C27.7023438,41 28.375,40.3273437 28.375,39.5 L28.375,34.625 C28.375,33.7976563 27.7023438,33.125 26.875,33.125 L23.6875,33.125 L23.6875,32 C23.6875,27.9617187 26.9617187,24.6875 31,24.6875 C35.0382812,24.6875 38.3125,27.9617187 38.3125,32 L38.3125,33.125 L35.125,33.125 C34.2976563,33.125 33.625,33.7976563 33.625,34.625 L33.625,39.5 C33.625,40.3273437 34.2976563,41 35.125,41 L39.4375,41 C39.7492187,41 40,40.7492187 40,40.4375 L40,32 C40,27.0289062 35.9710938,23 31,23 Z M26.6875,34.8125 L26.6875,39.3125 L23.6875,39.3125 L23.6875,34.8125 L26.6875,34.8125 Z M38.3125,39.3125 L35.3125,39.3125 L35.3125,34.8125 L38.3125,34.8125 L38.3125,39.3125 Z" id="形状备份-7" fill="#656D83" fill-rule="nonzero"></path>
                </g>
            </g>
        </g>
    </g>
</svg>