<?xml version="1.0" encoding="UTF-8"?>
<svg width="62px" height="50px" viewBox="0 0 62 50" version="1.1" xmlns="http://www.w3.org/2000/svg" xmlns:xlink="http://www.w3.org/1999/xlink">
    <!-- Generator: Sketch 57.1 (83088) - https://sketch.com -->
    <title>icon</title>
    <desc>Created with Sketch.</desc>
    <g id="页面-1" stroke="none" stroke-width="1" fill="none" fill-rule="evenodd">
        <g id="司南-项目管理" transform="translate(-1174.000000, -170.000000)">
            <g id="right" transform="translate(615.000000, 80.000000)">
                <g id="编组-6" transform="translate(71.000000, 90.000000)">
                    <g id="接口" transform="translate(488.000000, 0.000000)">
                        <g id="icon" transform="translate(-0.000000, 0.000000)">
                            <path d="M34.4615385,0 C36.6706775,-8.49901461e-16 38.4615385,1.790861 38.4615385,4 L38.461,5.384 L57.5384615,5.38461538 C59.7476005,5.38461538 61.5384615,7.17547639 61.5384615,9.38461538 L61.5384615,46 C61.5384615,48.209139 59.7476005,50 57.5384615,50 L4,50 C1.790861,50 2.705415e-16,48.209139 0,46 L0,9.38461538 L0,0 L34.4615385,0 Z" id="矩形-3" fill="#656D83"></path>
                            <rect id="矩形" fill="#E5EAF7" x="6.15384615" y="9.23076923" width="50" height="24.6153846" rx="2"></rect>
                            <rect id="矩形" fill="#8C95B0" x="0" y="13.8461538" width="61.5384615" height="36.1538462" rx="4"></rect>
                            <g id="编组" transform="translate(21.538462, 23.076923)" fill="#656D83">
                                <path d="M3.29339744,15.0640769 C1.86878205,13.6394615 1.86878205,11.3213846 3.29339744,9.89676923 L4.46839744,8.72176923 L9.63570513,13.8890769 L8.46083333,15.0640769 C7.03570513,16.4886923 4.71762821,16.4885641 3.29339744,15.0640769 L3.29339744,15.0640769 Z M4.46801282,6.36433333 L6.04711538,7.94330769 L7.39326923,6.59715385 L8.57160256,7.77574359 L7.22544872,9.12176923 L9.23467949,11.1308718 L10.5808333,9.78484615 L11.7591667,10.9633077 L10.4130128,12.3094615 L11.9922436,13.8885641 L10.8171154,15.0634359 L10.8176282,15.0640769 L9.63929487,16.2425385 C8.60198718,17.2798462 7.23942308,17.7984359 5.87698718,17.7984359 C4.77762821,17.7984359 3.67852564,17.4602308 2.7500641,16.7849744 L2.7500641,16.7849744 L1.17852564,18.3565128 L6.41025641e-05,17.1780513 L1.57160256,15.6062564 C0.0603205128,13.5270256 0.240961538,10.5921538 2.1149359,8.71830769 L2.1149359,8.71830769 L3.28980769,7.54317949 L3.28942308,7.54279487 L4.46801282,6.36433333 Z M17.1778718,1.28205128e-05 L18.3563333,1.17860256 L16.6597949,2.87526923 C17.3155641,3.77642308 17.6704359,4.86065385 17.6704359,6.00219231 C17.6704359,7.42680769 17.1188974,8.76283333 16.117359,9.76424359 L16.117359,9.76424359 L14.9390256,10.9428333 L13.7635128,12.1171923 L6.23928205,4.59296154 L7.41761538,3.4145 L7.41812821,3.41501282 L8.59312821,2.23988462 C9.59453846,1.23847436 10.9305641,0.687064103 12.3553077,0.687064103 C13.4963333,0.687064103 14.5800513,1.04167949 15.4810769,1.6969359 L15.4810769,1.6969359 L17.1778718,1.28205128e-05 Z M12.3553077,2.35373077 C11.3758205,2.35373077 10.4582564,2.73180769 9.77171795,3.41847436 L9.77171795,3.41847436 L8.59658974,4.59347436 L13.7638974,9.76078205 L14.9390256,8.58578205 C15.6255641,7.89924359 16.0037692,6.98155128 16.0037692,6.00219231 C16.0037692,5.02270513 15.6255641,4.10501282 14.9390256,3.41847436 C14.2524872,2.73180769 13.3347949,2.35373077 12.3553077,2.35373077 Z" id="Fill-1"></path>
                            </g>
                        </g>
                    </g>
                </g>
            </g>
        </g>
    </g>
</svg>