<?xml version="1.0" encoding="UTF-8"?>
<svg width="62px" height="50px" viewBox="0 0 62 50" version="1.1" xmlns="http://www.w3.org/2000/svg" xmlns:xlink="http://www.w3.org/1999/xlink">
    <!-- Generator: Sketch 63.1 (92452) - https://sketch.com -->
    <title>check-full</title>
    <desc>Created with Sketch.</desc>
    <g id="图标" stroke="none" stroke-width="1" fill="none" fill-rule="evenodd">
        <g id="new" transform="translate(-556.000000, -669.000000)">
            <g id="check-full" transform="translate(556.000000, 669.000000)">
                <g>
                    <path d="M0,0 L34.4615385,0 C36.6706775,-8.49901461e-16 38.4615385,1.790861 38.4615385,4 L38.461,5.384 L57.5384615,5.38461538 C59.7476005,5.38461538 61.5384615,7.17547639 61.5384615,9.38461538 L61.5384615,46 C61.5384615,48.209139 59.7476005,50 57.5384615,50 L4,50 C1.790861,50 2.705415e-16,48.209139 0,46 L0,0 Z" id="矩形-3" fill="#656D83"></path>
                    <rect id="矩形" fill="#E5EAF7" x="6.15384615" y="9.23076923" width="50" height="24.6153846" rx="2"></rect>
                    <rect id="矩形" fill="#8C95B0" x="0" y="13.8461538" width="61.5384615" height="36.1538462" rx="4"></rect>
                    <path d="M39.2805413,23 C39.677484,23 40,23.3202606 40,23.7194587 L40,23.7194587 L40,40.2805413 C40,40.677484 39.6797394,41 39.2805413,41 L39.2805413,41 L22.7194587,41 C22.322516,41 22,40.6797394 22,40.2805413 L22,40.2805413 L22,23.7194587 C22,23.322516 22.3202606,23 22.7194587,23 L22.7194587,23 Z M38.3806541,24.6193459 L23.6193459,24.6193459 L23.6193459,39.3806541 L38.3806541,39.3806541 L38.3806541,24.6193459 Z M34.9795765,28.421877 C35.1261747,28.421877 35.2118782,28.5887733 35.1261747,28.7083072 L35.1261747,28.7083072 L30.3876707,35.2781606 C30.1012404,35.6773587 29.5103371,35.6773587 29.2239068,35.2781606 L29.2239068,35.2781606 L26.422754,31.3899261 C26.3370505,31.2703922 26.422754,31.1034958 26.5693522,31.1034958 L26.5693522,31.1034958 L27.624859,31.1034958 C27.8549054,31.1034958 28.0714196,31.2162636 28.206741,31.4034582 L28.206741,31.4034582 L29.8080441,33.6272397 L33.3421877,28.7218394 C33.4752537,28.5323894 33.6940233,28.421877 33.9240697,28.421877 L33.9240697,28.421877 Z" id="形状结合" fill="#656D83" fill-rule="nonzero"></path>
                </g>
            </g>
        </g>
    </g>
</svg>