<?xml version="1.0" encoding="UTF-8"?>
<svg width="62px" height="50px" viewBox="0 0 62 50" version="1.1" xmlns="http://www.w3.org/2000/svg" xmlns:xlink="http://www.w3.org/1999/xlink">
    <!-- Generator: Sketch 63.1 (92452) - https://sketch.com -->
    <title>customer-full</title>
    <desc>Created with Sketch.</desc>
    <g id="图标" stroke="none" stroke-width="1" fill="none" fill-rule="evenodd">
        <g id="new" transform="translate(-1044.000000, -795.000000)">
            <g id="customer-full" transform="translate(1033.000000, 795.000000)">
                <g transform="translate(11.000000, 0.000000)">
                    <path d="M0,0 L34.4615385,0 C36.6706775,-8.49901461e-16 38.4615385,1.790861 38.4615385,4 L38.461,5.384 L57.5384615,5.38461538 C59.7476005,5.38461538 61.5384615,7.17547639 61.5384615,9.38461538 L61.5384615,46 C61.5384615,48.209139 59.7476005,50 57.5384615,50 L4,50 C1.790861,50 2.705415e-16,48.209139 0,46 L0,0 Z" id="矩形-3" fill="#656D83"></path>
                    <rect id="矩形" fill="#E5EAF7" x="6.15384615" y="9.23076923" width="50" height="24.6153846" rx="2"></rect>
                    <rect id="矩形" fill="#8C95B0" x="0" y="13.8461538" width="61.5384615" height="36.1538462" rx="4"></rect>
                    <path d="M33.0929938,33.2417256 L32.304106,33.790738 L32.304106,35.9175572 L28.6133264,35.9175572 L28.6133264,33.7953846 L27.8244387,33.246341 C26.5834927,32.3790229 25.8452807,30.9672765 25.8452807,29.4633472 C25.8452807,26.9213929 27.9167775,24.849896 30.4587006,24.849896 C33.0006549,24.849896 35.0721518,26.9213929 35.0721518,29.4633472 C35.0721518,30.9626611 34.3339397,32.3744075 33.0929938,33.2417256 L33.0929938,33.2417256 Z M30.4587006,23 C26.8925364,23 24,25.8925364 24,29.4587006 C24,31.6546881 25.0979314,33.5876923 26.7680457,34.7549168 L26.7680457,36.8401975 C26.7680457,37.3476715 27.1831809,37.762869 27.6906861,37.762869 L33.2267464,37.762869 C33.7342204,37.762869 34.1495114,37.3476715 34.1495114,36.8401975 L34.1495114,34.7549168 C35.819501,33.5876923 36.9175572,31.6546881 36.9175572,29.4587006 C36.9175572,25.8925364 34.024896,23 30.4587006,23 L30.4587006,23 Z M27.6906861,40.5308524 C27.6906861,41.0383576 28.1059459,41.4534927 28.6134511,41.4534927 L32.304106,41.4534927 C32.8116112,41.4534927 33.2268711,41.0383576 33.2268711,40.5308524 L33.2268711,39.6082121 L27.6906861,39.6082121 L27.6906861,40.5308524 Z" id="Fill" fill="#656D83"></path>
                </g>
            </g>
        </g>
    </g>
</svg>