<?xml version="1.0" encoding="UTF-8"?>
<svg width="62px" height="50px" viewBox="0 0 62 50" version="1.1" xmlns="http://www.w3.org/2000/svg" xmlns:xlink="http://www.w3.org/1999/xlink">
    <!-- Generator: Sketch 63.1 (92452) - https://sketch.com -->
    <title>delivery-empty</title>
    <desc>Created with Sketch.</desc>
    <g id="图标" stroke="none" stroke-width="1" fill="none" fill-rule="evenodd">
        <g id="new" transform="translate(-678.000000, -795.000000)">
            <g id="delivery-empty" transform="translate(674.000000, 795.000000)">
                <g transform="translate(4.000000, 0.000000)">
                    <path d="M0,0 L34.4615385,0 C36.6706775,-8.49901461e-16 38.4615385,1.790861 38.4615385,4 L38.461,5.384 L57.5384615,5.38461538 C59.7476005,5.38461538 61.5384615,7.17547639 61.5384615,9.38461538 L61.5384615,46 C61.5384615,48.209139 59.7476005,50 57.5384615,50 L4,50 C1.790861,50 2.705415e-16,48.209139 0,46 L0,0 Z" id="矩形-3" fill="#656D83"></path>
                    <rect id="矩形" fill="#8C95B0" x="0" y="13.8461538" width="61.5384615" height="36.1538462" rx="4"></rect>
                    <path d="M32.0054487,29.2979844 L32.0054486,29.2979845 C31.1045348,30.1989388 29.6438399,30.1989713 28.7428876,29.2980575 C28.7428632,29.2980331 28.7428388,29.2980087 28.7428144,29.2979843 L27.927306,28.4818879 L29.5583229,26.850871 L27.0321932,24.3247007 L27.0321932,24.3247007 C26.8069774,24.0995518 26.4419005,24.0995518 26.2166847,24.3247007 L21.3229649,29.2183597 L21.3229649,29.2183597 C21.0978018,29.4435775 21.0978018,29.8086706 21.3229649,30.0338884 L29.9660771,38.6776089 L29.9660771,38.6776089 C30.1912929,38.9027578 30.5563698,38.9027578 30.7815856,38.677609 L31.1899481,38.2698547 L29.9660771,37.0465921 L29.9660772,37.0465921 C29.7371873,36.8250828 29.7312059,36.4599633 29.9527146,36.2310735 C30.1742239,36.0021837 30.5393434,35.9962022 30.7682332,36.2177109 C30.7727566,36.2220885 30.777208,36.2265398 30.7815857,36.2310631 L32.0054566,37.453758 L32.8209651,36.6388173 L31.5977024,35.4149464 L31.5977025,35.4149464 C31.3686525,35.1936034 31.3624033,34.828488 31.5837446,34.599438 C31.8050876,34.370388 32.170203,34.3641388 32.399253,34.5854801 C32.4039849,34.5900527 32.4086382,34.594706 32.4132108,34.5994379 L33.6364735,35.8227208 L34.4520022,35.0072124 L33.2293073,33.7839294 L33.2293073,33.7839294 C32.9970313,33.5659745 32.9854232,33.2009889 33.2033787,32.9687129 C33.4213336,32.736437 33.7863192,32.7248289 34.0185952,32.9427843 C34.0274129,32.9510584 34.0359682,32.9596078 34.0442484,32.9684197 L35.2681194,34.1916824 L35.6758736,33.7839282 L35.6758736,33.7839282 C35.9010224,33.5587124 35.9010224,33.1936355 35.6758736,32.9684197 L32.005457,29.2980234 L32.0054487,29.2979844 Z M32.8209571,28.4818879 L36.4913535,32.1522843 L36.4913535,32.1522843 C36.6303214,32.2911251 36.7446234,32.4526234 36.8293576,32.6298494 L39.4275894,30.0315973 L39.4275894,30.0315973 C39.6527383,29.8063816 39.6527383,29.4413047 39.4275894,29.2160889 L34.5338899,24.3224096 L34.5338899,24.3224096 C34.3086741,24.0972607 33.9435972,24.0972607 33.7183814,24.3224096 L29.5583151,28.481888 L29.5583151,28.481888 C30.0086879,28.9324493 30.7390383,28.9326014 31.1895997,28.4822287 C31.1897133,28.4821151 31.1898269,28.4820015 31.1899404,28.4818879 L32.4126354,27.259193 L32.4126354,27.259193 C32.6339885,27.0301531 32.999104,27.0239222 33.2281438,27.2452753 C33.4571837,27.4666285 33.4634146,27.8317439 33.2420615,28.0607837 C33.2376911,28.0653059 33.2332471,28.0697562 33.2287311,28.074133 L32.8209769,28.4818872 L32.8209571,28.4818879 Z M31.5977147,39.4931175 C30.9220796,40.1688743 29.8265589,40.1689736 29.1508041,39.4933388 L20.5068826,30.849985 C19.8311257,30.1743497 19.8310263,29.0788291 20.5066614,28.4030743 L25.40115,23.509194 C26.0768036,22.8337412 27.1720424,22.8337432 27.8476958,23.5091941 L30.3738457,26.0353238 L32.9022869,23.5068826 C33.5779222,22.8311257 34.6734428,22.8310263 35.3491976,23.5066614 L40.2430982,28.4005417 C40.918855,29.0761769 40.9189544,30.1716975 40.2433195,30.8474523 L36.4913741,34.599418 L31.5977147,39.4931175 Z" id="形状备份-6" stroke="#656D83" stroke-width="0.2" fill="#656D83" fill-rule="nonzero"></path>
                </g>
            </g>
        </g>
    </g>
</svg>