<?xml version="1.0" encoding="UTF-8"?>
<svg width="62px" height="50px" viewBox="0 0 62 50" version="1.1" xmlns="http://www.w3.org/2000/svg" xmlns:xlink="http://www.w3.org/1999/xlink">
    <!-- Generator: Sketch 57.1 (83088) - https://sketch.com -->
    <title>icon</title>
    <desc>Created with Sketch.</desc>
    <g id="页面-1" stroke="none" stroke-width="1" fill="none" fill-rule="evenodd">
        <g id="司南-项目管理" transform="translate(-1052.000000, -170.000000)">
            <g id="right" transform="translate(615.000000, 80.000000)">
                <g id="编组-6" transform="translate(71.000000, 90.000000)">
                    <g id="设计" transform="translate(366.000000, 0.000000)">
                        <g id="icon">
                            <path d="M34.4615385,0 C36.6706775,-8.49901461e-16 38.4615385,1.790861 38.4615385,4 L38.461,5.384 L57.5384615,5.38461538 C59.7476005,5.38461538 61.5384615,7.17547639 61.5384615,9.38461538 L61.5384615,46 C61.5384615,48.209139 59.7476005,50 57.5384615,50 L4,50 C1.790861,50 2.705415e-16,48.209139 0,46 L0,9.38461538 L0,0 L34.4615385,0 Z" id="矩形-3" fill="#656D83"></path>
                            <rect id="矩形" fill="#E5EAF7" x="6.15384615" y="9.23076923" width="50" height="24.6153846" rx="2"></rect>
                            <rect id="矩形" fill="#8C95B0" x="0" y="13.8461538" width="61.5384615" height="36.1538462" rx="4"></rect>
                            <g id="编组" transform="translate(21.538462, 24.615385)" fill="#656D83">
                                <path d="M16.0840211,13.6185458 L2.33927924,13.6185458 C1.9558862,13.6185458 1.64381033,13.3065964 1.64381033,12.9230769 L1.64381033,12.290706 L5.23078609,8.51822972 C5.49089146,8.24484721 5.84178714,8.09424658 6.21911064,8.09424658 C6.59643414,8.09424658 6.94732982,8.24484721 7.20730875,8.51822972 L10.9322403,12.4357429 C11.0938419,12.6056902 11.3107018,12.6912961 11.5280674,12.6912961 C11.7313973,12.6912961 11.9352329,12.6161855 12.0943056,12.4649526 C12.4231992,12.1522445 12.4363498,11.6320337 12.1235153,11.3030137 L11.8850327,11.0521391 L13.5644004,9.2860274 C13.7333361,9.1083667 13.9613235,9.01049526 14.2065079,9.01049526 C14.4515659,9.01049526 14.6796797,9.1083667 14.8484889,9.2860274 L16.77949,11.3167966 L16.77949,12.9230769 C16.77949,13.3065964 16.4675406,13.6185458 16.0840211,13.6185458 M2.33927924,1.77028451 L16.0840211,1.77028451 C16.4675406,1.77028451 16.77949,2.08236038 16.77949,2.46575342 L16.77949,8.9312118 L16.039764,8.15329821 C15.5574879,7.6461117 14.9064025,7.36665964 14.2065079,7.36665964 C13.5064868,7.36665964 12.8554015,7.6461117 12.3731254,8.15329821 L10.7507861,9.85934668 L8.39858377,7.38550053 C7.82526449,6.78246575 7.05114436,6.45041096 6.21911064,6.45041096 C5.38695047,6.45041096 4.6129568,6.78246575 4.03963751,7.38550053 L1.64381033,9.90512118 L1.64381033,2.46575342 C1.64381033,2.08236038 1.9558862,1.77028451 2.33927924,1.77028451 M16.0840211,0.126448894 L2.33927924,0.126448894 C1.04937408,0.126448894 -2.52897787e-05,1.17597471 -2.52897787e-05,2.46575342 L-2.52897787e-05,12.9230769 C-2.52897787e-05,14.2129821 1.04937408,15.2623815 2.33927924,15.2623815 L16.0840211,15.2623815 C17.3739262,15.2623815 18.4233256,14.2129821 18.4233256,12.9230769 L18.4233256,2.46575342 C18.4233256,1.17597471 17.3739262,0.126448894 16.0840211,0.126448894 M11.0693361,4.49353846 C11.4440042,4.49353846 11.7488725,4.79840674 11.7488725,5.17307482 C11.7488725,5.54761644 11.4440042,5.85248472 11.0693361,5.85248472 C10.6946681,5.85248472 10.3897998,5.54761644 10.3897998,5.17307482 C10.3897998,4.79840674 10.6946681,4.49353846 11.0693361,4.49353846 M11.0693361,7.49632034 C12.3503899,7.49632034 13.3927081,6.45412856 13.3927081,5.17307482 C13.3927081,3.89189463 12.3503899,2.84970285 11.0693361,2.84970285 C9.7882824,2.84970285 8.74596417,3.89189463 8.74596417,5.17307482 C8.74596417,6.45412856 9.7882824,7.49632034 11.0693361,7.49632034" id="Fill-1"></path>
                            </g>
                        </g>
                    </g>
                </g>
            </g>
        </g>
    </g>
</svg>