<?xml version="1.0" encoding="UTF-8"?>
<svg width="62px" height="50px" viewBox="0 0 62 50" version="1.1" xmlns="http://www.w3.org/2000/svg" xmlns:xlink="http://www.w3.org/1999/xlink">
    <!-- Generator: Sketch 63.1 (92452) - https://sketch.com -->
    <title>end-empty</title>
    <desc>Created with Sketch.</desc>
    <g id="图标" stroke="none" stroke-width="1" fill="none" fill-rule="evenodd">
        <g id="new" transform="translate(-1166.000000, -669.000000)">
            <g id="end-empty" transform="translate(1166.000000, 669.000000)">
                <g>
                    <path d="M0,0 L34.4615385,0 C36.6706775,-8.49901461e-16 38.4615385,1.790861 38.4615385,4 L38.461,5.384 L57.5384615,5.38461538 C59.7476005,5.38461538 61.5384615,7.17547639 61.5384615,9.38461538 L61.5384615,46 C61.5384615,48.209139 59.7476005,50 57.5384615,50 L4,50 C1.790861,50 2.705415e-16,48.209139 0,46 L0,0 Z" id="矩形-3" fill="#656D83"></path>
                    <rect id="矩形" fill="#8C95B0" x="0" y="13.8461538" width="61.5384615" height="36.1538462" rx="4"></rect>
                    <path d="M39.28252,24 L22.7164992,24 C22.1651986,24 21.820917,24.6008052 22.0976924,25.0800992 L27.3316729,34.2024366 L27.3316729,39.3914129 C27.3316729,39.7896995 27.6512022,40.111479 28.0472386,40.111479 L33.9517806,40.111479 C34.347817,40.111479 34.6673463,39.7896995 34.6673463,39.3914129 L34.6673463,34.2024366 L39.903577,25.0800992 C40.1781022,24.6008052 39.8338206,24 39.28252,24 Z M33.0561984,38.4913303 L28.9428208,38.4913303 L28.9428208,35.1610246 L33.0584486,35.1610246 L33.0584486,38.4913303 L33.0561984,38.4913303 Z M33.2722182,33.3923622 L33.0832009,33.7208924 L28.9135681,33.7208924 L28.7245508,33.3923622 L27.0031427,30.3905867 L34.9958765,30.3905867 L33.2722182,33.3923622 Z M35.8217023,28.9504544 L26.1773169,28.9504544 L24.2646413,25.6201487 L37.7343778,25.6201487 L35.8217023,28.9504544 Z" id="形状备份-4" fill="#656D83" fill-rule="nonzero"></path>
                </g>
            </g>
        </g>
    </g>
</svg>