<?xml version="1.0" encoding="UTF-8"?>
<svg width="62px" height="50px" viewBox="0 0 62 50" version="1.1" xmlns="http://www.w3.org/2000/svg" xmlns:xlink="http://www.w3.org/1999/xlink">
    <!-- Generator: Sketch 63.1 (92452) - https://sketch.com -->
    <title>framework-full</title>
    <desc>Created with Sketch.</desc>
    <g id="图标" stroke="none" stroke-width="1" fill="none" fill-rule="evenodd">
        <g id="new" transform="translate(-800.000000, -921.000000)">
            <g id="framework-full" transform="translate(800.000000, 921.000000)">
                <g>
                    <path d="M0,0 L34.4615385,0 C36.6706775,-8.49901461e-16 38.4615385,1.790861 38.4615385,4 L38.461,5.384 L57.5384615,5.38461538 C59.7476005,5.38461538 61.5384615,7.17547639 61.5384615,9.38461538 L61.5384615,46 C61.5384615,48.209139 59.7476005,50 57.5384615,50 L4,50 C1.790861,50 2.705415e-16,48.209139 0,46 L0,0 Z" id="矩形-3" fill="#656D83"></path>
                    <rect id="矩形" fill="#E5EAF7" x="6.15384615" y="9.23076923" width="50" height="24.6153846" rx="2"></rect>
                    <rect id="矩形" fill="#8C95B0" x="0" y="13.8461538" width="61.5384615" height="36.1538462" rx="4"></rect>
                    <path d="M30.9998178,22.0000016 L30.9998179,22.0000016 C32.8071419,21.9982752 34.2737118,23.4295487 34.275495,25.1968609 C34.2769722,26.6584485 33.2655238,27.935281 31.8179175,28.2992187 L31.8179175,30.80002 L36.7265916,30.80002 L36.7265915,30.80002 C37.4043375,30.8000199 37.95376,31.337279 37.95376,32.0000206 L37.9541691,34.5160281 L37.954169,34.5160281 C39.4696225,34.9579658 40.3317697,36.5175541 39.8798265,37.9994611 C39.4278834,39.4813643 37.8329862,40.3244247 36.3175289,39.882487 C34.8020755,39.4405493 33.9399283,37.880961 34.3918714,36.399054 C34.6679,35.4939667 35.3919486,34.7859495 36.3175289,34.5160281 L36.3175289,32.4000333 L25.6820621,32.4000333 L25.6824711,34.5160281 L25.6824711,34.5160281 C27.1979245,34.9579658 28.0600717,36.5175541 27.6081286,37.9994611 C27.1561854,39.4813643 25.5612882,40.3244247 24.045831,39.882487 C22.5303775,39.4405493 21.6682303,37.880961 22.1201735,36.399054 C22.396202,35.4939667 23.1202506,34.7859494 24.045831,34.5160281 L24.045831,32.0000205 L24.045831,32.0000207 C24.0458309,31.3372791 24.5952535,30.8000201 25.2729995,30.8000201 L30.1816735,30.8000201 L30.1816735,28.2992189 L30.1816734,28.2992188 C28.4312786,27.8591374 27.3771331,26.114824 27.827178,24.4031731 C28.1993706,22.9876224 29.5051028,21.9985594 30.9997729,22.0000016 L30.9998178,22.0000016 Z M37.1356603,36.0000351 L37.1356603,36.0000351 C36.4579143,36.0000351 35.9084918,36.5372941 35.9084918,37.2000357 C35.9084918,37.8627773 36.4579143,38.4000363 37.1356603,38.4000363 L37.1356602,38.4000363 C37.8134062,38.4000363 38.3628287,37.8627773 38.3628287,37.2000357 C38.3628287,36.5372941 37.8134062,36.0000351 37.1356602,36.0000351 L37.1356603,36.0000351 Z M24.8639752,36.0000351 L24.8639751,36.0000351 C24.1862291,36.0000351 23.6368066,36.5372941 23.6368066,37.2000357 C23.6368066,37.8627773 24.1862291,38.4000363 24.8639751,38.4000363 L24.8639751,38.4000363 C25.5417211,38.4000363 26.0911436,37.8627773 26.0911436,37.2000357 C26.0911436,36.5372941 25.5417211,36.0000351 24.8639751,36.0000351 L24.8639752,36.0000351 Z M30.9998178,23.6000351 L30.9998178,23.6000351 C30.0961559,23.6000351 29.3635938,24.3163792 29.3635938,25.2000353 C29.3635938,26.0836913 30.0961559,26.8000354 30.9998178,26.8000354 C30.9998179,26.8000354 30.9998179,26.8000354 30.9998179,26.8000354 L30.9998178,26.8000354 C31.9034798,26.8000354 32.6360419,26.0836913 32.6360419,25.2000353 C32.6360419,24.3163792 31.9034798,23.6000351 30.9998178,23.6000351 L30.9998178,23.6000351 Z" id="形状" fill="#656D83" fill-rule="nonzero"></path>
                </g>
            </g>
        </g>
    </g>
</svg>