<?xml version="1.0" encoding="UTF-8"?>
<svg width="62px" height="50px" viewBox="0 0 62 50" version="1.1" xmlns="http://www.w3.org/2000/svg" xmlns:xlink="http://www.w3.org/1999/xlink">
    <!-- Generator: Sketch 63.1 (92452) - https://sketch.com -->
    <title>icon备份 7</title>
    <desc>Created with Sketch.</desc>
    <defs>
        <polygon id="path-1" points="0 0 18.100192 0 18.100192 18.3907461 0 18.3907461"></polygon>
    </defs>
    <g id="页面-1" stroke="none" stroke-width="1" fill="none" fill-rule="evenodd">
        <g id="new" transform="translate(-1058.000000, -541.000000)">
            <g id="right" transform="translate(621.000000, 70.000000)">
                <g id="测试备份-2" transform="translate(437.000000, 471.000000)">
                    <g id="icon备份-7">
                        <path d="M0,0 L34.4615385,0 C36.6706775,-8.49901461e-16 38.4615385,1.790861 38.4615385,4 L38.461,5.384 L57.5384615,5.38461538 C59.7476005,5.38461538 61.5384615,7.17547639 61.5384615,9.38461538 L61.5384615,46 C61.5384615,48.209139 59.7476005,50 57.5384615,50 L4,50 C1.790861,50 2.705415e-16,48.209139 0,46 L0,0 Z" id="矩形-3" fill="#656D83"></path>
                        <rect id="矩形" fill="#8C95B0" x="0" y="13.8461538" width="61.5384615" height="36.1538462" rx="4"></rect>
                        <g id="编组" transform="translate(21.538462, 23.076923)">
                            <mask id="mask-2" fill="white">
                                <use xlink:href="#path-1"></use>
                            </mask>
                            <g id="Clip-2"></g>
                            <path d="M9.25268592,11.6855027 L6.94387503,9.42698112 L6.97123733,9.39895976 L6.97123757,9.3989595 C8.51101906,7.70486689 9.66149264,5.70044647 10.3434217,3.52382167 L13.0070073,3.52382167 L13.0070073,1.72204823 L6.64383998,1.72204823 L6.64383998,-0.0769230769 L4.82565666,-0.0769230769 L4.82565666,1.722983 L-1.53846154,1.722983 L-1.53846154,3.52382167 L8.61581724,3.52382167 L8.61581728,3.52382157 C7.98769599,5.30226723 7.008137,6.93909994 5.73427622,8.33883254 L5.73427582,8.3388321 C4.90457227,7.42859763 4.1985036,6.41499499 3.63397772,5.32373378 L1.81673866,5.32373378 L1.81673793,5.32373217 C2.4983817,6.82254655 3.41200562,8.20693308 4.52466207,9.4270006 L-0.101473595,13.9449852 L1.18927564,15.2227592 L5.73425298,10.7234701 L8.56201282,13.5218626 L9.25267688,11.6864636 M14.3703844,7.12364482 L12.5522011,7.12364482 L8.46199788,17.9230769 L10.2801812,17.9230769 L11.2982495,15.2236786 L15.6158508,15.2236786 L16.6433551,17.9230769 L18.4615385,17.9230769 L14.3703844,7.12364482 M11.9889069,13.4228465 L13.460814,9.52601671 L14.9336652,13.4228465 L11.9889069,13.4228465 Z" id="形状" fill="#656D83" fill-rule="nonzero" mask="url(#mask-2)"></path>
                        </g>
                    </g>
                </g>
            </g>
        </g>
    </g>
</svg>