<?xml version="1.0" encoding="UTF-8"?>
<svg width="62px" height="50px" viewBox="0 0 62 50" version="1.1" xmlns="http://www.w3.org/2000/svg" xmlns:xlink="http://www.w3.org/1999/xlink">
    <!-- Generator: Sketch 63.1 (92452) - https://sketch.com -->
    <title>implement-empty</title>
    <desc>Created with Sketch.</desc>
    <g id="图标" stroke="none" stroke-width="1" fill="none" fill-rule="evenodd">
        <g id="new" transform="translate(-1166.000000, -543.000000)">
            <g id="implement-empty" transform="translate(1166.000000, 543.000000)">
                <g>
                    <path d="M0,0 L34.4615385,0 C36.6706775,-8.49901461e-16 38.4615385,1.790861 38.4615385,4 L38.461,5.384 L57.5384615,5.38461538 C59.7476005,5.38461538 61.5384615,7.17547639 61.5384615,9.38461538 L61.5384615,46 C61.5384615,48.209139 59.7476005,50 57.5384615,50 L4,50 C1.790861,50 2.705415e-16,48.209139 0,46 L0,0 Z" id="矩形-3" fill="#656D83"></path>
                    <rect id="矩形" fill="#8C95B0" x="0" y="13.8461538" width="61.5384615" height="36.1538462" rx="4"></rect>
                    <path d="M39.1995055,25.8378685 L39.1995055,25.8378685 C39.118835,25.7005281 38.9421028,25.6545882 38.8047623,25.7352588 C38.7835786,25.7477017 38.7640714,25.7628004 38.7467149,25.780188 L34.8633759,29.6649662 L33.3348457,28.1349929 L37.2181847,24.2502147 L37.2181847,24.2502147 C37.3304126,24.1371879 37.329765,23.9545826 37.2167382,23.8423551 C37.1998588,23.8255949 37.1809707,23.8109873 37.1605042,23.7988654 L37.1605046,23.7988656 C34.4108165,22.1809201 30.8701633,23.0983785 29.2522138,25.8480606 C28.4677764,27.1812055 28.2507617,28.7732515 28.6497654,30.267726 L22.0482428,36.8692485 L22.0482429,36.8692485 C21.9817213,36.9389694 21.9843149,37.0494155 22.0540356,37.1159362 C22.0545056,37.1163845 22.054978,37.1168303 22.0554529,37.1172734 L25.8782275,40.9414871 C25.948886,41.0107037 26.0613627,41.0150298 26.1262538,40.9472552 L32.7263371,34.348611 L32.7263366,34.3486109 C35.8077293,35.1753567 38.9759073,33.3476024 39.8026551,30.2662097 C40.2043183,28.7691525 39.9875094,27.173481 39.2009617,25.8378698 L39.1995055,25.8378685 Z M37.1561856,31.7039631 L37.1561855,31.7039631 C35.880151,32.9799937 33.9261222,33.2859485 32.3211255,32.4610185 L32.1235695,32.6600156 L32.1206855,32.6571316 L25.9474315,38.8332639 L24.1622221,37.0494976 L29.3491355,31.8625843 L29.3505775,31.8654683 L30.5402367,30.6758091 L30.5402365,30.6758086 C29.490595,28.6364514 30.2929239,26.1323134 32.332289,25.0826681 C33.0133135,24.7321514 33.7780044,24.5767974 34.541826,24.6337835 L31.5482044,27.6288443 L31.5482043,27.6288443 C31.2662781,27.9100589 31.2657024,28.3665731 31.5469157,28.6484993 C31.5473447,28.6489295 31.5477743,28.6493591 31.5482045,28.6497881 L34.3529171,31.4545007 L34.352917,31.4545007 C34.6341315,31.7364269 35.0906458,31.7370026 35.372572,31.4557896 C35.3730021,31.4553605 35.3734317,31.4549309 35.3738608,31.4545008 L38.3660234,28.4623381 L38.3660234,28.4623371 C38.4534887,29.6671533 38.0124016,30.850413 37.1576191,31.7039732 L37.1561856,31.7039631 Z" id="形状备" fill="#656D83" fill-rule="nonzero"></path>
                </g>
            </g>
        </g>
    </g>
</svg>