<?xml version="1.0" encoding="UTF-8"?>
<svg width="62px" height="50px" viewBox="0 0 62 50" version="1.1" xmlns="http://www.w3.org/2000/svg" xmlns:xlink="http://www.w3.org/1999/xlink">
    <!-- Generator: Sketch 63.1 (92452) - https://sketch.com -->
    <title>init-full</title>
    <desc>Created with Sketch.</desc>
    <g id="图标" stroke="none" stroke-width="1" fill="none" fill-rule="evenodd">
        <g id="new" transform="translate(-556.000000, -543.000000)">
            <g id="init-full" transform="translate(556.000000, 543.000000)">
                <g>
                    <path d="M0,0 L34.4615385,0 C36.6706775,-8.49901461e-16 38.4615385,1.790861 38.4615385,4 L38.461,5.384 L57.5384615,5.38461538 C59.7476005,5.38461538 61.5384615,7.17547639 61.5384615,9.38461538 L61.5384615,46 C61.5384615,48.209139 59.7476005,50 57.5384615,50 L4,50 C1.790861,50 2.705415e-16,48.209139 0,46 L0,0 Z" id="矩形-3" fill="#656D83"></path>
                    <rect id="矩形" fill="#E5EAF7" x="6.15384615" y="9.23076923" width="50" height="24.6153846" rx="2"></rect>
                    <rect id="矩形" fill="#8C95B0" x="0" y="13.8461538" width="61.5384615" height="36.1538462" rx="4"></rect>
                    <path d="M39.0074743,30.1224577 L39.0029247,30.1042592 L36.450578,23.6187507 C36.336837,23.2525049 35.997889,23 35.6134447,23 L25.2675686,23 C24.8808494,23 24.5373518,23.2570545 24.4281605,23.62785 L22.0418756,30.0473887 L22.0350511,30.0633124 L22.0305015,30.081511 C22.0009288,30.1929771 21.9918295,30.3067181 22.0077533,30.4181842 C22.0054785,30.4545813 22.0032036,30.4909784 22.0032036,30.5273755 L22.0032036,38.8509376 L22.0032036,38.8509082 C22.0044398,39.6142487 22.6229234,40.2327583 23.3862639,40.2340276 L37.6539275,40.2340276 C38.4159918,40.2340276 39.0370174,39.6130021 39.0392922,38.8509378 L39.0392922,30.5273757 C39.0392922,30.497803 39.0392922,30.4682304 39.0370174,30.4432074 C39.0461166,30.3317413 39.0370174,30.2248248 39.0074447,30.1224579 L39.0074743,30.1224577 Z M32.2785603,29.1442856 L32.2717358,29.5014322 C32.2535373,30.5228258 31.5483434,31.2098211 30.5178505,31.2098211 C30.0151155,31.2098211 29.5829,31.048309 29.2712498,30.7412085 C28.9595996,30.4341079 28.7889882,30.006442 28.7798889,29.5014322 L28.7730645,29.1442856 L24.0914873,29.1442856 L25.8999683,24.7470609 L34.981045,24.7470609 L36.839572,29.1442856 L32.2785603,29.1442856 Z M23.7479897,30.8913465 L27.3262797,30.8913465 C27.8790607,32.190268 29.055142,32.956882 30.5201253,32.956882 C31.2867393,32.956882 31.9987575,32.743049 32.5742867,32.3381313 C33.0792965,31.9832595 33.4728401,31.487349 33.7276199,30.8913465 L37.2877113,30.8913465 L37.2877113,38.4869666 L23.7479897,38.4869666 L23.7479897,30.8913465 L23.7479897,30.8913465 Z" id="形状" fill="#656D83" fill-rule="nonzero"></path>
                </g>
            </g>
        </g>
    </g>
</svg>