<?xml version="1.0" encoding="UTF-8"?>
<svg width="62px" height="50px" viewBox="0 0 62 50" version="1.1" xmlns="http://www.w3.org/2000/svg" xmlns:xlink="http://www.w3.org/1999/xlink">
    <!-- Generator: Sketch 63.1 (92452) - https://sketch.com -->
    <title>online-full</title>
    <desc>Created with Sketch.</desc>
    <g id="图标" stroke="none" stroke-width="1" fill="none" fill-rule="evenodd">
        <g id="new" transform="translate(-312.000000, -669.000000)">
            <g id="online-full" transform="translate(312.000000, 669.000000)">
                <g>
                    <path d="M0,0 L34.4615385,0 C36.6706775,-8.49901461e-16 38.4615385,1.790861 38.4615385,4 L38.461,5.384 L57.5384615,5.38461538 C59.7476005,5.38461538 61.5384615,7.17547639 61.5384615,9.38461538 L61.5384615,46 C61.5384615,48.209139 59.7476005,50 57.5384615,50 L4,50 C1.790861,50 2.705415e-16,48.209139 0,46 L0,0 Z" id="矩形-3" fill="#656D83"></path>
                    <rect id="矩形" fill="#E5EAF7" x="6.15384615" y="9.23076923" width="50" height="24.6153846" rx="2"></rect>
                    <rect id="矩形" fill="#8C95B0" x="0" y="13.8461538" width="61.5384615" height="36.1538462" rx="4"></rect>
                    <path d="M30.4018692,23 C30.5911215,23 30.7824766,23.0799065 30.9170561,23.2397196 L30.9170561,23.2397196 L34.121729,27.039486 C34.3278037,27.2813084 34.4392523,27.5883178 34.4392523,27.9058411 L34.4392523,27.9058411 L34.4392523,31.3922897 C36.4285047,32.3364486 37.8037383,34.3635514 37.8037383,36.7102804 L37.8037383,36.7102804 L37.8037383,36.7123832 L34.5191589,36.7123832 C34.561215,36.8679907 34.5843458,37.036215 34.5843458,37.2128505 C34.5843458,37.6754673 34.4245327,38.1296729 34.1343458,38.4913551 C33.896729,38.7857477 33.5834112,39.0065421 33.2280374,39.1327103 C32.9946262,39.6815421 32.6098131,40.1462617 32.1135514,40.4785047 C31.6067757,40.8191589 31.013785,41 30.4018692,41 C29.1633178,41 28.0593458,40.2682243 27.5735981,39.1327103 C27.2182243,39.0065421 26.9049065,38.7836449 26.6672897,38.4892523 C26.3771028,38.1296729 26.2172897,37.6754673 26.2172897,37.2107477 C26.2172897,37.0257009 26.2425234,36.8616822 26.2908879,36.7102804 L26.2908879,36.7102804 L23,36.7102804 C23,34.3635514 24.3752336,32.3364486 26.364486,31.3922897 L26.364486,31.3922897 L26.364486,27.9058411 C26.364486,27.5883178 26.4780374,27.2813084 26.6820093,27.039486 L26.6820093,27.039486 L29.8866822,23.2397196 C30.0212617,23.0799065 30.2126168,23 30.4018692,23 Z M32.8348131,36.7081776 L27.971028,36.7081776 C27.7880841,36.8007009 27.6640187,36.9857477 27.6640187,37.2086449 C27.6640187,37.421028 27.7775701,37.6165888 27.960514,37.721729 C28.0488318,37.7721963 28.1476636,37.7995327 28.2507009,37.7995327 C28.2759346,37.7995327 28.2990654,37.7974299 28.3200935,37.7953271 L28.3200935,37.7953271 L28.7301402,37.742757 L28.7890187,38.1528037 C28.9025701,38.9497664 29.5964953,39.5511682 30.4018692,39.5511682 C31.207243,39.5511682 31.9011682,38.9497664 32.0147196,38.1528037 L32.0147196,38.1528037 L32.0735981,37.7448598 L32.4836449,37.7953271 C32.6077103,37.8121495 32.7338785,37.7869159 32.8432243,37.7238318 C33.0261682,37.6207944 33.1397196,37.4231308 33.1418224,37.2086449 C33.1418224,36.9878505 33.0198598,36.8028037 32.8348131,36.7081776 L32.8348131,36.7081776 Z M34.3551402,32.9820093 L34.3551402,35.2803738 L36.1383178,35.2803738 C36.0226636,34.9376168 35.8628505,34.6074766 35.6651869,34.3004673 C35.3245327,33.7705607 34.8766355,33.3226636 34.3551402,32.9820093 L34.3551402,32.9820093 Z M30.4018692,24.8462617 L27.7943925,27.9373832 L27.7943925,35.2803738 L33.0093458,35.2803738 L33.0093458,27.9373832 L30.4018692,24.8462617 Z M26.4485981,32.9820093 C25.9271028,33.3226636 25.4813084,33.7705607 25.1385514,34.3004673 C24.9408879,34.6074766 24.7810748,34.9376168 24.6654206,35.2803738 L24.6654206,35.2803738 L26.4485981,35.2803738 Z M30.4018692,28.635514 C30.9593154,28.635514 31.411215,29.0874135 31.411215,29.6448598 C31.411215,30.2023061 30.9593154,30.6542056 30.4018692,30.6542056 C29.8444229,30.6542056 29.3925234,30.2023061 29.3925234,29.6448598 C29.3925234,29.0874135 29.8444229,28.635514 30.4018692,28.635514 Z" id="形状结合" fill="#656D83" fill-rule="nonzero"></path>
                </g>
            </g>
        </g>
    </g>
</svg>