<?xml version="1.0" encoding="UTF-8"?>
<svg width="62px" height="50px" viewBox="0 0 62 50" version="1.1" xmlns="http://www.w3.org/2000/svg" xmlns:xlink="http://www.w3.org/1999/xlink">
    <!-- Generator: Sketch 63.1 (92452) - https://sketch.com -->
    <title>presale-empty</title>
    <desc>Created with Sketch.</desc>
    <g id="图标" stroke="none" stroke-width="1" fill="none" fill-rule="evenodd">
        <g id="new" transform="translate(-434.000000, -795.000000)">
            <g id="presale-empty" transform="translate(423.000000, 795.000000)">
                <g transform="translate(11.000000, 0.000000)">
                    <path d="M0,0 L34.4615385,0 C36.6706775,-8.49901461e-16 38.4615385,1.790861 38.4615385,4 L38.461,5.384 L57.5384615,5.38461538 C59.7476005,5.38461538 61.5384615,7.17547639 61.5384615,9.38461538 L61.5384615,46 C61.5384615,48.209139 59.7476005,50 57.5384615,50 L4,50 C1.790861,50 2.705415e-16,48.209139 0,46 L0,0 Z" id="矩形-3" fill="#656D83"></path>
                    <rect id="矩形" fill="#8C95B0" x="0" y="13.8461538" width="61.5384615" height="36.1538462" rx="4"></rect>
                    <path d="M39.2125984,25.8503937 L36.8166479,23.4566929 C36.5241845,23.1642295 36.1327334,23 35.7187852,23 C35.3048369,23 34.9133858,23.1619798 34.6209224,23.4566929 L32.0404949,26.0326209 C31.7480315,26.3250844 31.583802,26.7187852 31.583802,27.1327334 C31.583802,27.5489314 31.7457818,27.9381327 32.0404949,28.2328459 L34.056243,30.2508436 C33.5928009,31.3262092 32.9403825,32.2890889 32.1124859,33.1147357 C31.2868391,33.9448819 30.3217098,34.5995501 29.2508436,35.0629921 L27.2350956,33.0449944 C26.9426322,32.7525309 26.5511811,32.5883015 26.1372328,32.5883015 C25.7210349,32.5883015 25.3318335,32.7502812 25.0393701,33.0449944 L22.4566929,35.6209224 C22.1642295,35.9133858 22,36.3070866 22,36.7210349 C22,37.1372328 22.1619798,37.5264342 22.4566929,37.8211474 L24.8503937,40.2148481 C25.3498313,40.7142857 26.0382452,41 26.7446569,41 C26.8908886,41 27.0326209,40.9887514 27.1766029,40.9640045 C30.1552306,40.4735658 33.1113611,38.8875141 35.4983127,36.5028121 C37.8830146,34.1136108 39.4668166,31.1574803 39.9617548,28.1766029 C40.1034871,27.3307087 39.8200225,26.4600675 39.2125984,25.8503937 Z M38.3667042,27.9088864 C37.928009,30.5613048 36.5016873,33.2069741 34.3532058,35.3554556 C32.2047244,37.503937 29.5613048,38.9302587 26.9088864,39.3689539 C26.575928,39.4251969 26.2339708,39.3127109 25.9910011,39.071991 L23.640045,36.7210349 L26.1327334,34.2260967 L28.8278965,36.9257593 L28.848144,36.9460067 L29.3340832,36.7660292 C32.3194601,35.6659168 34.663667,33.3217098 35.7615298,30.336333 L35.9415073,29.8503937 L33.223847,27.1349831 L35.7165354,24.640045 L38.0674916,26.9910011 C38.3104612,27.2339708 38.4229471,27.575928 38.3667042,27.9088864 Z" id="形状备份-5" fill="#656D83" fill-rule="nonzero"></path>
                </g>
            </g>
        </g>
    </g>
</svg>