<?xml version="1.0" encoding="UTF-8"?>
<svg width="62px" height="50px" viewBox="0 0 62 50" version="1.1" xmlns="http://www.w3.org/2000/svg" xmlns:xlink="http://www.w3.org/1999/xlink">
    <!-- Generator: Sketch 57.1 (83088) - https://sketch.com -->
    <title>icon</title>
    <desc>Created with Sketch.</desc>
    <defs>
        <polygon id="path-1" points="0 5.0516481e-06 17.6107064 5.0516481e-06 17.6107064 18.4400597 0 18.4400597"></polygon>
    </defs>
    <g id="页面-1" stroke="none" stroke-width="1" fill="none" fill-rule="evenodd">
        <g id="司南-项目管理" transform="translate(-808.000000, -418.000000)">
            <g id="right" transform="translate(615.000000, 80.000000)">
                <g id="编组-4" transform="translate(71.000000, 338.000000)">
                    <g id="产品" transform="translate(122.000000, 0.000000)">
                        <g id="icon">
                            <path d="M34.4615385,0 C36.6706775,-8.49901461e-16 38.4615385,1.790861 38.4615385,4 L38.461,5.384 L57.5384615,5.38461538 C59.7476005,5.38461538 61.5384615,7.17547639 61.5384615,9.38461538 L61.5384615,46 C61.5384615,48.209139 59.7476005,50 57.5384615,50 L4,50 C1.790861,50 2.705415e-16,48.209139 0,46 L0,9.38461538 L0,0 L34.4615385,0 Z" id="矩形-3" fill="#656D83"></path>
                            <rect id="矩形" fill="#8C95B0" x="0" y="13.8461538" width="61.5384615" height="36.1538462" rx="4"></rect>
                            <g id="编组" transform="translate(22.307692, 23.076923)">
                                <mask id="mask-2" fill="white">
                                    <use xlink:href="#path-1"></use>
                                </mask>
                                <g id="Clip-2"></g>
                                <path d="M8.00499215,16.1507975 L1.75679749,13.1162292 L1.75679749,6.0451146 L7.93315542,9.00794035 L8.00499215,16.1507975 Z M14.7269074,4.68772057 L8.89686028,7.51918053 L2.9877237,4.68772057 L8.89686028,1.8562292 L14.7269074,4.68772057 Z M15.8529984,6.09591523 L15.8529984,13.2041727 L9.76188383,16.1647692 L9.6899843,9.08351334 L15.8529984,6.09591523 Z M17.6031397,13.6514568 C17.6062794,13.6334662 17.6098273,13.6073124 17.6098273,13.5764176 L17.6098273,4.68772057 C17.6098273,4.34900785 17.4167661,4.03823862 17.1186185,3.89632339 L9.27805338,0.0883485086 C9.04414443,-0.0286373626 8.75786499,-0.0295478807 8.51177394,0.0862762951 L0.5744427,3.8939686 C0.402354788,3.97337206 0.27010989,4.09644898 0.181193093,4.25983987 C0.0609419152,4.41695133 0,4.59701413 0,4.7951617 L0,13.6447692 C0,13.9713312 0.180502355,14.2696672 0.471836735,14.4261193 C0.529733124,14.4757582 0.599372057,14.5195259 0.664897959,14.547281 L8.50235479,18.3538116 L8.50951334,18.3571083 C8.63343799,18.4121476 8.76075353,18.4400597 8.88794349,18.4400597 C9.02932496,18.4400597 9.15990581,18.4106405 9.27510204,18.3530581 L17.1174254,14.5441727 C17.4586813,14.3803736 17.6523077,14.0231366 17.6031397,13.6514568 L17.6031397,13.6514568 Z" id="Fill-1" fill="#656D83" mask="url(#mask-2)"></path>
                            </g>
                        </g>
                    </g>
                </g>
            </g>
        </g>
    </g>
</svg>