<?xml version="1.0" encoding="UTF-8"?>
<svg width="62px" height="50px" viewBox="0 0 62 50" version="1.1" xmlns="http://www.w3.org/2000/svg" xmlns:xlink="http://www.w3.org/1999/xlink">
    <!-- Generator: Sketch 63.1 (92452) - https://sketch.com -->
    <title>project-empty</title>
    <desc>Created with Sketch.</desc>
    <g id="图标" stroke="none" stroke-width="1" fill="none" fill-rule="evenodd">
        <g id="new" transform="translate(-922.000000, -543.000000)">
            <g id="project-empty" transform="translate(922.000000, 543.000000)">
                <g>
                    <path d="M0,0 L34.4615385,0 C36.6706775,-8.49901461e-16 38.4615385,1.790861 38.4615385,4 L38.461,5.384 L57.5384615,5.38461538 C59.7476005,5.38461538 61.5384615,7.17547639 61.5384615,9.38461538 L61.5384615,46 C61.5384615,48.209139 59.7476005,50 57.5384615,50 L4,50 C1.790861,50 2.705415e-16,48.209139 0,46 L0,0 Z" id="矩形-3" fill="#656D83"></path>
                    <rect id="矩形" fill="#8C95B0" x="0" y="13.8461538" width="61.5384615" height="36.1538462" rx="4"></rect>
                    <path d="M29.826087,23 L22.3913043,23 C22.176087,23 22,23.176087 22,23.3913043 L22,30.826087 C22,31.0413043 22.176087,31.2173913 22.3913043,31.2173913 L29.826087,31.2173913 C30.0413043,31.2173913 30.2173913,31.0413043 30.2173913,30.826087 L30.2173913,23.3913043 C30.2173913,23.176087 30.0413043,23 29.826087,23 Z M28.5543478,29.5543478 L23.6630435,29.5543478 L23.6630435,24.6630435 L28.5543478,24.6630435 L28.5543478,29.5543478 Z M39.6086957,23 L32.173913,23 C31.9586957,23 31.7826087,23.176087 31.7826087,23.3913043 L31.7826087,30.826087 C31.7826087,31.0413043 31.9586957,31.2173913 32.173913,31.2173913 L39.6086957,31.2173913 C39.823913,31.2173913 40,31.0413043 40,30.826087 L40,23.3913043 C40,23.176087 39.823913,23 39.6086957,23 Z M38.3369565,29.5543478 L33.4456522,29.5543478 L33.4456522,24.6630435 L38.3369565,24.6630435 L38.3369565,29.5543478 Z M29.826087,32.7826087 L22.3913043,32.7826087 C22.176087,32.7826087 22,32.9586957 22,33.173913 L22,40.6086957 C22,40.823913 22.176087,41 22.3913043,41 L29.826087,41 C30.0413043,41 30.2173913,40.823913 30.2173913,40.6086957 L30.2173913,33.173913 C30.2173913,32.9586957 30.0413043,32.7826087 29.826087,32.7826087 Z M28.5543478,39.3369565 L23.6630435,39.3369565 L23.6630435,34.4456522 L28.5543478,34.4456522 L28.5543478,39.3369565 Z M39.6086957,32.7826087 L32.173913,32.7826087 C31.9586957,32.7826087 31.7826087,32.9586957 31.7826087,33.173913 L31.7826087,40.6086957 C31.7826087,40.823913 31.9586957,41 32.173913,41 L39.6086957,41 C39.823913,41 40,40.823913 40,40.6086957 L40,33.173913 C40,32.9586957 39.823913,32.7826087 39.6086957,32.7826087 Z M38.3369565,39.3369565 L33.4456522,39.3369565 L33.4456522,34.4456522 L38.3369565,34.4456522 L38.3369565,39.3369565 Z" id="形状备份" fill="#656D83" fill-rule="nonzero"></path>
                </g>
            </g>
        </g>
    </g>
</svg>