<?xml version="1.0" encoding="UTF-8"?>
<svg width="62px" height="50px" viewBox="0 0 62 50" version="1.1" xmlns="http://www.w3.org/2000/svg" xmlns:xlink="http://www.w3.org/1999/xlink">
    <title>replay-full</title>
    <g id="图标备份" stroke="none" stroke-width="1" fill="none" fill-rule="evenodd">
        <g id="new" transform="translate(-876.000000, -628.000000)">
            <g id="replay-full" transform="translate(876.000000, 628.000000)">
                <path d="M0,0 L34.4615385,0 C36.6706775,-1.29399067e-15 38.4615385,1.790861 38.4615385,4 L38.461,5.384 L57.5384615,5.38461538 C59.7476005,5.38461538 61.5384615,7.17547639 61.5384615,9.38461538 L61.5384615,46 C61.5384615,48.209139 59.7476005,50 57.5384615,50 L4,50 C1.790861,50 2.705415e-16,48.209139 0,46 L0,0 Z" id="矩形-3" fill="#656D83"></path>
                <rect id="矩形" fill="#E5EAF7" x="6.15384615" y="9.23076923" width="50" height="24.6153846" rx="2"></rect>
                <rect id="矩形" fill="#8C95B0" x="0" y="13.8461538" width="61.5384615" height="36.1538462" rx="4"></rect>
                <path d="M31.3792757,33.8235901 L25.4350215,33.8235901 L23.5403637,24.3777928 L36.971799,24.3777928 L35.5109428,28.9172664 C35.506253,28.9350172 35.5085979,28.9527681 35.5050806,28.9717022 C35.4965547,29.010943 35.4926196,29.0510579 35.4933562,29.0912244 C35.4917689,29.1284078 35.493732,29.1656591 35.4992184,29.2024628 C35.5146023,29.2783324 35.5431825,29.3508509 35.5836339,29.4166559 C35.5953582,29.4320399 35.5965307,29.4521575 35.608255,29.4651747 L37.9531285,32.4733452 C38.1543529,32.7293053 38.5226024,32.7731889 38.7773515,32.5715663 C39.0308,32.3688909 39.0742959,31.9975736 38.8746638,31.7408285 L36.7232424,28.9811694 L38.3365153,23.9683408 C38.3458948,23.9375728 38.3412051,23.9091715 38.3458948,23.87722 C38.351757,23.8464519 38.3646538,23.8180506 38.3646538,23.7860992 C38.3646538,23.7766321 38.3599641,23.7695318 38.3599641,23.7600647 C38.3576192,23.7186461 38.3458948,23.6795943 38.3365153,23.6393592 C38.3271359,23.6050409 38.3212737,23.5683559 38.306032,23.5364045 C38.2907903,23.5032696 38.2673416,23.4748683 38.2450653,23.4452837 C38.222789,23.4133322 38.2028576,23.3813807 38.1758915,23.3553462 C38.1500979,23.3316785 38.1196145,23.3162944 38.0903036,23.2961769 C38.0551305,23.2736925 38.0211299,23.2500248 37.981267,23.2346407 C37.9730599,23.2322739 37.9671978,23.2251736 37.9589907,23.2228069 C37.9285074,23.2121564 37.898024,23.2168899 37.8663682,23.2121564 C37.8370573,23.2074228 37.8100912,23.1944056 37.7784354,23.1944056 L23.3047039,23.1944056 L23.1604942,22.4749061 C23.1192353,22.2677421 22.9716127,22.0985317 22.7732342,22.0310146 C22.5748557,21.9634976 22.3558598,22.0079314 22.1987402,22.1475783 C22.0416205,22.2872252 21.9702473,22.5008695 22.0115062,22.7080334 L25.5768863,40.5085448 C25.6130368,40.720792 25.7605865,40.8964529 25.9621215,40.967175 C26.1636565,41.0378972 26.3873466,40.992511 26.5461505,40.8486768 C26.7049544,40.7048426 26.7737907,40.4852774 26.7258743,40.2754175 L25.6706812,35.0093441 L31.3804481,35.0093441 C31.7042076,35.0093441 31.9666665,34.7444339 31.9666665,34.4176505 C31.9666665,34.0908671 31.7042076,33.8259569 31.3804481,33.8259569 M40.3119826,34.7648893 C39.6670983,33.8118172 38.6397195,33.1807638 37.492624,33.0331368 C36.3455285,32.8855098 35.1899681,33.235627 34.3215063,33.993937 L34.3215063,33.9218747 C34.3215063,33.623067 34.0774511,33.3808354 33.7763937,33.3808354 C33.4753363,33.3808354 33.2312811,33.623067 33.2312811,33.9218747 L33.2312811,35.5758762 C33.2312811,35.6833977 33.2716171,35.7783369 33.3269351,35.8629816 C33.38036,35.9600656 33.4634998,36.0377772 33.5643415,36.0848877 C33.6958845,36.1439013 33.8456933,36.1484779 33.980644,36.0976056 C34.1155947,36.0467333 34.2245702,35.9446029 34.2834752,35.8137962 C34.7194993,34.845263 35.6502416,34.1874386 36.7150068,34.095253 C37.779772,34.0030673 38.8112121,34.4910091 39.4096081,35.3699839 C40.014945,36.2649283 40.0743443,37.4180689 39.564122,38.3696212 C39.0538997,39.3211735 38.0570373,39.9163794 36.9710071,39.9179161 C35.5464638,39.9208971 34.325577,38.9078781 34.0760328,37.5158392 C34.0101881,37.2355737 33.7348155,37.0555137 33.4493761,37.1060824 C33.1639367,37.1566511 32.968333,37.4201496 33.0042469,37.7057177 C33.3455345,39.6139216 35.0183823,41.0031721 36.9710071,41 C39.1955548,40.997472 40.9980947,39.2078899 41,36.9999646 C41,36.1992723 40.7614412,35.4248885 40.3119826,34.7660331" id="形状备份-10" stroke="#656D83" stroke-width="0.4" fill="#656D83" fill-rule="nonzero"></path>
            </g>
        </g>
    </g>
</svg>