<?xml version="1.0" encoding="UTF-8"?>
<svg width="62px" height="50px" viewBox="0 0 62 50" version="1.1" xmlns="http://www.w3.org/2000/svg" xmlns:xlink="http://www.w3.org/1999/xlink">
    <title>replay-empty</title>
    <g id="图标备份" stroke="none" stroke-width="1" fill="none" fill-rule="evenodd">
        <g id="new" transform="translate(-996.000000, -626.000000)">
            <g id="replay-empty" transform="translate(996.000000, 626.000000)">
                <path d="M0,0 L34.4615385,0 C36.6706775,-1.29399067e-15 38.4615385,1.790861 38.4615385,4 L38.461,5.384 L57.5384615,5.38461538 C59.7476005,5.38461538 61.5384615,7.17547639 61.5384615,9.38461538 L61.5384615,46 C61.5384615,48.209139 59.7476005,50 57.5384615,50 L4,50 C1.790861,50 2.705415e-16,48.209139 0,46 L0,0 Z" id="矩形-3" fill="#656D83"></path>
                <rect id="矩形" fill="#8C95B0" x="0" y="13.8461538" width="61.5384615" height="36.1538462" rx="4"></rect>
                <path d="M30.3792757,33.8235901 L24.4350215,33.8235901 L22.5403637,24.3777928 L35.971799,24.3777928 L34.5109428,28.9172664 C34.506253,28.9350172 34.5085979,28.9527681 34.5050806,28.9717022 C34.4965547,29.010943 34.4926196,29.0510579 34.4933562,29.0912244 C34.4917689,29.1284078 34.493732,29.1656591 34.4992184,29.2024628 C34.5146023,29.2783324 34.5431825,29.3508509 34.5836339,29.4166559 C34.5953582,29.4320399 34.5965307,29.4521575 34.608255,29.4651747 L36.9531285,32.4733452 C37.1543529,32.7293053 37.5226024,32.7731889 37.7773515,32.5715663 C38.0308,32.3688909 38.0742959,31.9975736 37.8746638,31.7408285 L35.7232424,28.9811694 L37.3365153,23.9683408 C37.3458948,23.9375728 37.3412051,23.9091715 37.3458948,23.87722 C37.351757,23.8464519 37.3646538,23.8180506 37.3646538,23.7860992 C37.3646538,23.7766321 37.3599641,23.7695318 37.3599641,23.7600647 C37.3576192,23.7186461 37.3458948,23.6795943 37.3365153,23.6393592 C37.3271359,23.6050409 37.3212737,23.5683559 37.306032,23.5364045 C37.2907903,23.5032696 37.2673416,23.4748683 37.2450653,23.4452837 C37.222789,23.4133322 37.2028576,23.3813807 37.1758915,23.3553462 C37.1500979,23.3316785 37.1196145,23.3162944 37.0903036,23.2961769 C37.0551305,23.2736925 37.0211299,23.2500248 36.981267,23.2346407 C36.9730599,23.2322739 36.9671978,23.2251736 36.9589907,23.2228069 C36.9285074,23.2121564 36.898024,23.2168899 36.8663682,23.2121564 C36.8370573,23.2074228 36.8100912,23.1944056 36.7784354,23.1944056 L22.3047039,23.1944056 L22.1604942,22.4749061 C22.1192353,22.2677421 21.9716127,22.0985317 21.7732342,22.0310146 C21.5748557,21.9634976 21.3558598,22.0079314 21.1987402,22.1475783 C21.0416205,22.2872252 20.9702473,22.5008695 21.0115062,22.7080334 L24.5768863,40.5085448 C24.6130368,40.720792 24.7605865,40.8964529 24.9621215,40.967175 C25.1636565,41.0378972 25.3873466,40.992511 25.5461505,40.8486768 C25.7049544,40.7048426 25.7737907,40.4852774 25.7258743,40.2754175 L24.6706812,35.0093441 L30.3804481,35.0093441 C30.7042076,35.0093441 30.9666665,34.7444339 30.9666665,34.4176505 C30.9666665,34.0908671 30.7042076,33.8259569 30.3804481,33.8259569 M39.3119826,34.7648893 C38.6670983,33.8118172 37.6397195,33.1807638 36.492624,33.0331368 C35.3455285,32.8855098 34.1899681,33.235627 33.3215063,33.993937 L33.3215063,33.9218747 C33.3215063,33.623067 33.0774511,33.3808354 32.7763937,33.3808354 C32.4753363,33.3808354 32.2312811,33.623067 32.2312811,33.9218747 L32.2312811,35.5758762 C32.2312811,35.6833977 32.2716171,35.7783369 32.3269351,35.8629816 C32.38036,35.9600656 32.4634998,36.0377772 32.5643415,36.0848877 C32.6958845,36.1439013 32.8456933,36.1484779 32.980644,36.0976056 C33.1155947,36.0467333 33.2245702,35.9446029 33.2834752,35.8137962 C33.7194993,34.845263 34.6502416,34.1874386 35.7150068,34.095253 C36.779772,34.0030673 37.8112121,34.4910091 38.4096081,35.3699839 C39.014945,36.2649283 39.0743443,37.4180689 38.564122,38.3696212 C38.0538997,39.3211735 37.0570373,39.9163794 35.9710071,39.9179161 C34.5464638,39.9208971 33.325577,38.9078781 33.0760328,37.5158392 C33.0101881,37.2355737 32.7348155,37.0555137 32.4493761,37.1060824 C32.1639367,37.1566511 31.968333,37.4201496 32.0042469,37.7057177 C32.3455345,39.6139216 34.0183823,41.0031721 35.9710071,41 C38.1955548,40.997472 39.9980947,39.2078899 40,36.9999646 C40,36.1992723 39.7614412,35.4248885 39.3119826,34.7660331" id="形状" stroke="#656D83" stroke-width="0.3" fill="#656D83" fill-rule="nonzero"></path>
            </g>
        </g>
    </g>
</svg>