<?xml version="1.0" encoding="UTF-8"?>
<svg width="62px" height="50px" viewBox="0 0 62 50" version="1.1" xmlns="http://www.w3.org/2000/svg" xmlns:xlink="http://www.w3.org/1999/xlink">
    <!-- Generator: Sketch 57.1 (83088) - https://sketch.com -->
    <title>icon</title>
    <desc>Created with Sketch.</desc>
    <defs>
        <polygon id="path-1" points="0 0 12.9175572 0 12.9175572 18.4534896 0 18.4534896"></polygon>
    </defs>
    <g id="页面-1" stroke="none" stroke-width="1" fill="none" fill-rule="evenodd">
        <g id="司南-项目管理" transform="translate(-686.000000, -170.000000)">
            <g id="right" transform="translate(615.000000, 80.000000)">
                <g id="编组-6" transform="translate(71.000000, 90.000000)">
                    <g id="需求">
                        <g id="icon">
                            <path d="M34.4615385,0 C36.6706775,-8.49901461e-16 38.4615385,1.790861 38.4615385,4 L38.461,5.384 L57.5384615,5.38461538 C59.7476005,5.38461538 61.5384615,7.17547639 61.5384615,9.38461538 L61.5384615,46 C61.5384615,48.209139 59.7476005,50 57.5384615,50 L4,50 C1.790861,50 2.705415e-16,48.209139 0,46 L0,9.38461538 L0,0 L34.4615385,0 Z" id="矩形-3" fill="#656D83"></path>
                            <rect id="矩形" fill="#E5EAF7" x="6.15384615" y="9.23076923" width="50" height="24.6153846" rx="2"></rect>
                            <rect id="矩形" fill="#8C95B0" x="0" y="13.8461538" width="61.5384615" height="36.1538462" rx="4"></rect>
                            <g id="编组" transform="translate(24.615385, 23.076923)">
                                <mask id="mask-2" fill="white">
                                    <use xlink:href="#path-1"></use>
                                </mask>
                                <g id="Clip-2"></g>
                                <path d="M9.09299376,10.2417225 L8.30410603,10.7907349 L8.30410603,12.9175541 L4.6133264,12.9175541 L4.6133264,10.7953815 L3.82443867,10.2463378 C2.58349272,9.37901975 1.84528067,7.96727339 1.84528067,6.46334407 C1.84528067,3.92138981 3.91677755,1.84989293 6.45870062,1.84989293 C9.00065489,1.84989293 11.0721518,3.92138981 11.0721518,6.46334407 C11.0721518,7.962658 10.3339397,9.37440437 9.09299376,10.2417225 L9.09299376,10.2417225 Z M6.45870062,-3.11850312e-06 C2.89253638,-3.11850312e-06 0,2.89253326 0,6.45869751 C0,8.65468503 1.09793139,10.5876892 2.76804574,11.7549137 L2.76804574,13.8401944 C2.76804574,14.3476684 3.18318087,14.7628659 3.69068607,14.7628659 L9.22674636,14.7628659 C9.73422037,14.7628659 10.1495114,14.3476684 10.1495114,13.8401944 L10.1495114,11.7549137 C11.819501,10.5876892 12.9175572,8.65468503 12.9175572,6.45869751 C12.9175572,2.89253326 10.024896,-3.11850312e-06 6.45870062,-3.11850312e-06 L6.45870062,-3.11850312e-06 Z M3.69068607,17.5308493 C3.69068607,18.0383545 4.10594595,18.4534896 4.61345114,18.4534896 L8.30410603,18.4534896 C8.81161123,18.4534896 9.2268711,18.0383545 9.2268711,17.5308493 L9.2268711,16.6082089 L3.69068607,16.6082089 L3.69068607,17.5308493 Z" id="Fill-1" fill="#656D83" mask="url(#mask-2)"></path>
                            </g>
                        </g>
                    </g>
                </g>
            </g>
        </g>
    </g>
</svg>