<?xml version="1.0" encoding="UTF-8"?>
<svg width="62px" height="50px" viewBox="0 0 62 50" version="1.1" xmlns="http://www.w3.org/2000/svg" xmlns:xlink="http://www.w3.org/1999/xlink">
    <!-- Generator: Sketch 63.1 (92452) - https://sketch.com -->
    <title>solution-empty</title>
    <desc>Created with Sketch.</desc>
    <g id="图标" stroke="none" stroke-width="1" fill="none" fill-rule="evenodd">
        <g id="new" transform="translate(-434.000000, -921.000000)">
            <g id="solution-empty" transform="translate(423.000000, 921.000000)">
                <g transform="translate(11.000000, 0.000000)">
                    <path d="M0,0 L34.4615385,0 C36.6706775,-8.49901461e-16 38.4615385,1.790861 38.4615385,4 L38.461,5.384 L57.5384615,5.38461538 C59.7476005,5.38461538 61.5384615,7.17547639 61.5384615,9.38461538 L61.5384615,46 C61.5384615,48.209139 59.7476005,50 57.5384615,50 L4,50 C1.790861,50 2.705415e-16,48.209139 0,46 L0,0 Z" id="矩形-3" fill="#656D83"></path>
                    <rect id="矩形" fill="#8C95B0" x="0" y="13.8461538" width="61.5384615" height="36.1538462" rx="4"></rect>
                    <path d="M38.5551839,23 C39.3518395,23 40,23.6488839 40,24.4464286 L40,24.4464286 L40,31.2767857 C40,31.6765625 39.6769231,32 39.277592,32 C38.8782609,32 38.5551839,31.6765625 38.5551839,31.2767857 L38.5551839,31.2767857 L38.5551839,24.4464286 L23.4448161,24.4464286 L23.4448161,39.5535714 L29.0033445,39.5535714 C29.4026756,39.5535714 29.7257525,39.8770089 29.7257525,40.2767857 C29.7257525,40.6765625 29.4026756,41 29.0033445,41 L29.0033445,41 L23.4448161,41 C22.6481605,41 22,40.3511161 22,39.5535714 L22,39.5535714 L22,24.4464286 C22,23.6488839 22.6481605,23 23.4448161,23 L23.4448161,23 Z M36.1270903,32.3756696 C37.5879599,32.3756696 38.7759197,33.5649554 38.7759197,35.0274554 C38.7759197,35.9495536 38.3043478,36.7611607 37.5899666,37.2372768 C38.7919732,37.7234375 39.7130435,38.7941964 39.9658863,40.1321429 C40.0401338,40.5238839 39.7832776,40.9015625 39.3919732,40.9779018 C39.3478261,40.9859375 39.3016722,40.9899554 39.2575251,40.9899554 C38.9183946,40.9899554 38.6153846,40.7488839 38.5491639,40.4013393 C38.3304348,39.2401786 37.3110368,38.3984375 36.129097,38.3984375 C34.9471572,38.3984375 33.9297659,39.2401786 33.7090301,40.4013393 C33.6347826,40.7950893 33.2555184,41.0522321 32.864214,40.9779018 C32.470903,40.9035714 32.2140468,40.5238839 32.2882943,40.1321429 C32.5411371,38.7962054 33.4622074,37.7234375 34.664214,37.2372768 C33.9498328,36.7611607 33.4782609,35.9475446 33.4782609,35.0274554 C33.4782609,33.5649554 34.6662207,32.3756696 36.1270903,32.3756696 Z M36.1270903,33.8220982 C35.4628763,33.8220982 34.9230769,34.3625 34.9230769,35.0274554 C34.9230769,35.6924107 35.4628763,36.2328125 36.1270903,36.2328125 C36.7913043,36.2328125 37.3311037,35.6924107 37.3311037,35.0274554 C37.3311037,34.3625 36.7913043,33.8220982 36.1270903,33.8220982 Z M29.0033445,34.5714286 C29.4026756,34.5714286 29.7257525,34.8948661 29.7257525,35.2946429 C29.7257525,35.6944196 29.4026756,36.0178571 29.0033445,36.0178571 L29.0033445,36.0178571 L25.3110368,36.0178571 C24.9117057,36.0178571 24.5886288,35.6944196 24.5886288,35.2946429 C24.5886288,34.8948661 24.9117057,34.5714286 25.3110368,34.5714286 L25.3110368,34.5714286 Z M29.0033445,30.7142857 C29.4026756,30.7142857 29.7257525,31.0377232 29.7257525,31.4375 C29.7257525,31.8372768 29.4026756,32.1607143 29.0033445,32.1607143 L29.0033445,32.1607143 L25.3110368,32.1607143 C24.9117057,32.1607143 24.5886288,31.8372768 24.5886288,31.4375 C24.5886288,31.0377232 24.9117057,30.7142857 25.3110368,30.7142857 L25.3110368,30.7142857 Z M31.5719064,26.8571429 C31.9712375,26.8571429 32.2943144,27.1805804 32.2943144,27.5803571 C32.2943144,27.9801339 31.9712375,28.3035714 31.5719064,28.3035714 L31.5719064,28.3035714 L25.3110368,28.3035714 C24.9117057,28.3035714 24.5886288,27.9801339 24.5886288,27.5803571 C24.5886288,27.1805804 24.9117057,26.8571429 25.3110368,26.8571429 L25.3110368,26.8571429 Z" id="形状结合" fill="#656D83" fill-rule="nonzero"></path>
                </g>
            </g>
        </g>
    </g>
</svg>