<?xml version="1.0" encoding="UTF-8"?>
<svg width="62px" height="50px" viewBox="0 0 62 50" version="1.1" xmlns="http://www.w3.org/2000/svg" xmlns:xlink="http://www.w3.org/1999/xlink">
    <!-- Generator: Sketch 63.1 (92452) - https://sketch.com -->
    <title>survey-full</title>
    <desc>Created with Sketch.</desc>
    <g id="图标" stroke="none" stroke-width="1" fill="none" fill-rule="evenodd">
        <g id="new" transform="translate(-556.000000, -921.000000)">
            <g id="survey-full" transform="translate(556.000000, 921.000000)">
                <g>
                    <path d="M0,0 L34.4615385,0 C36.6706775,-8.49901461e-16 38.4615385,1.790861 38.4615385,4 L38.461,5.384 L57.5384615,5.38461538 C59.7476005,5.38461538 61.5384615,7.17547639 61.5384615,9.38461538 L61.5384615,46 C61.5384615,48.209139 59.7476005,50 57.5384615,50 L4,50 C1.790861,50 2.705415e-16,48.209139 0,46 L0,0 Z" id="矩形-3" fill="#656D83"></path>
                    <rect id="矩形" fill="#E5EAF7" x="6.15384615" y="9.23076923" width="50" height="24.6153846" rx="2"></rect>
                    <rect id="矩形" fill="#8C95B0" x="0" y="13.8461538" width="61.5384615" height="36.1538462" rx="4"></rect>
                    <path d="M39.946,39.70625 L34.10275,33.863 C35.0095,32.69075 35.5,31.2575 35.5,29.75 C35.5,27.9455 34.79575,26.2535 33.52225,24.97775 C32.24875,23.702 30.55225,23 28.75,23 C26.94775,23 25.25125,23.70425 23.97775,24.97775 C22.702,26.25125 22,27.9455 22,29.75 C22,31.55225 22.70425,33.24875 23.97775,34.52225 C25.25125,35.798 26.9455,36.5 28.75,36.5 C30.2575,36.5 31.6885,36.0095 32.86075,35.105 L38.704,40.946 C38.776,41.018 38.893,41.018 38.965,40.946 L39.946,39.96725 C40.018,39.89525 40.018,39.77825 39.946,39.70625 Z M32.314,33.314 C31.36,34.26575 30.0955,34.79 28.75,34.79 C27.4045,34.79 26.14,34.26575 25.186,33.314 C24.23425,32.36 23.71,31.0955 23.71,29.75 C23.71,28.4045 24.23425,27.13775 25.186,26.186 C26.14,25.23425 27.4045,24.71 28.75,24.71 C30.0955,24.71 31.36225,25.232 32.314,26.186 C33.26575,27.14 33.79,28.4045 33.79,29.75 C33.79,31.0955 33.26575,32.36225 32.314,33.314 Z" id="形状" fill="#656D83" fill-rule="nonzero"></path>
                </g>
            </g>
        </g>
    </g>
</svg>