<?xml version="1.0" encoding="UTF-8"?>
<svg width="62px" height="50px" viewBox="0 0 62 50" version="1.1" xmlns="http://www.w3.org/2000/svg" xmlns:xlink="http://www.w3.org/1999/xlink">
    <!-- Generator: Sketch 63.1 (92452) - https://sketch.com -->
    <title>technology-empty</title>
    <desc>Created with Sketch.</desc>
    <g id="图标" stroke="none" stroke-width="1" fill="none" fill-rule="evenodd">
        <g id="new" transform="translate(-922.000000, -669.000000)">
            <g id="technology-empty" transform="translate(922.000000, 669.000000)">
                <g>
                    <path d="M0,0 L34.4615385,0 C36.6706775,-8.49901461e-16 38.4615385,1.790861 38.4615385,4 L38.461,5.384 L57.5384615,5.38461538 C59.7476005,5.38461538 61.5384615,7.17547639 61.5384615,9.38461538 L61.5384615,46 C61.5384615,48.209139 59.7476005,50 57.5384615,50 L4,50 C1.790861,50 2.705415e-16,48.209139 0,46 L0,0 Z" id="矩形-3" fill="#656D83"></path>
                    <rect id="矩形" fill="#8C95B0" x="0" y="13.8461538" width="61.5384615" height="36.1538462" rx="4"></rect>
                    <path d="M39.6,28.6 L34.4,28.6 L34.4,23.4 C34.4,23.18 34.22,23 34,23 L22.4,23 C22.18,23 22,23.18 22,23.4 L22,35 C22,35.22 22.18,35.4 22.4,35.4 L27.6,35.4 L27.6,40.6 C27.6,40.82 27.78,41 28,41 L39.6,41 C39.82,41 40,40.82 40,40.6 L40,29 C40,28.78 39.82,28.6 39.6,28.6 Z M27.6,29 L27.6,33.7 L23.7,33.7 L23.7,24.7 L32.7,24.7 L32.7,28.6 L28,28.6 C27.78,28.6 27.6,28.78 27.6,29 Z M32.7,30.3 L32.7,33.7 L29.3,33.7 L29.3,30.3 L32.7,30.3 Z M38.3,39.3 L29.3,39.3 L29.3,35.4 L34,35.4 C34.22,35.4 34.4,35.22 34.4,35 L34.4,30.3 L38.3,30.3 L38.3,39.3 Z" id="形状备份-3" fill="#656D83" fill-rule="nonzero"></path>
                </g>
            </g>
        </g>
    </g>
</svg>